<?xml version="1.0" encoding="UTF-8" ?>
<!DOCTYPE svg PUBLIC "-//W3C//DTD SVG 1.1//EN" "https://www.w3.org/Graphics/SVG/1.1/DTD/svg11.dtd">
<svg width="1566pt" height="278pt" viewBox="0 0 1566 278" version="1.1" xmlns="https://www.w3.org/2000/svg">
<g id="#585858ff">
</g>
<g id="#fefefeff">
<path fill="#fefefe" opacity="1.00" d=" M 415.14 49.05 C 417.74 43.06 419.14 36.29 423.88 31.49 C 425.27 33.29 426.73 35.06 427.77 37.09 C 438.00 61.25 448.12 85.46 458.41 109.60 C 460.50 113.94 462.07 118.85 465.97 121.96 C 467.59 123.60 470.31 124.76 469.81 127.52 C 455.44 127.65 441.07 127.65 426.70 127.55 C 426.22 123.34 430.84 123.93 433.61 123.09 C 435.69 122.57 436.78 120.55 438.13 119.07 C 435.69 113.38 434.76 106.91 430.96 101.89 C 426.20 99.96 420.99 100.71 416.00 100.58 C 411.28 100.70 406.37 100.02 401.86 101.80 C 399.99 103.29 399.55 105.80 398.57 107.86 C 397.27 111.41 395.03 114.97 395.66 118.90 C 397.26 123.33 402.52 123.65 406.52 123.61 C 406.55 124.95 406.60 126.30 406.65 127.64 C 397.07 127.68 387.49 127.63 377.91 127.46 C 379.06 122.53 385.06 121.57 387.29 117.34 C 391.91 107.95 395.27 98.01 399.31 88.37 C 404.30 75.15 410.09 62.25 415.14 49.05 M 415.60 64.61 C 413.21 68.41 411.62 72.62 410.27 76.88 C 407.95 82.70 405.64 88.51 403.27 94.31 C 411.77 94.55 420.27 94.53 428.77 94.31 C 425.43 84.21 419.99 74.87 417.13 64.61 C 416.75 64.61 415.98 64.61 415.60 64.61 Z" />
<path fill="#fefefe" opacity="1.00" d=" M 516.26 33.15 C 520.06 32.12 524.11 32.19 527.93 33.13 C 532.38 34.16 536.96 34.95 541.12 36.93 C 543.42 38.01 545.92 39.13 548.53 38.57 C 551.55 36.15 554.11 32.89 558.21 32.35 C 558.64 43.07 558.32 53.79 558.43 64.51 C 557.54 65.24 556.66 65.99 555.81 66.75 C 552.89 63.05 550.81 58.82 548.41 54.80 C 543.94 48.46 538.24 42.45 530.88 39.60 C 525.73 39.14 520.37 38.76 515.30 39.84 C 506.56 44.26 502.00 53.91 499.94 63.05 C 499.07 69.33 498.34 75.64 498.56 81.99 C 498.46 92.46 499.80 103.45 505.48 112.48 C 509.09 118.34 515.57 121.51 521.99 123.30 C 527.33 124.39 532.52 122.28 537.50 120.65 C 544.78 118.31 550.53 112.87 555.40 107.18 C 557.40 107.77 559.35 108.50 561.29 109.28 C 557.26 117.60 548.71 122.38 540.97 126.77 C 531.24 130.76 520.19 131.90 510.02 128.95 C 494.87 126.28 482.12 114.47 476.96 100.20 C 475.06 92.07 472.08 83.60 474.36 75.23 C 475.94 68.79 476.67 61.96 480.36 56.26 C 485.29 48.43 492.05 41.44 500.53 37.47 C 505.34 34.71 510.98 34.45 516.26 33.15 Z" />
<path fill="#fefefe" opacity="1.00" d=" M 615.42 32.59 C 620.27 31.82 624.99 33.45 629.71 34.30 C 645.84 36.68 659.06 49.63 664.22 64.75 C 666.09 73.24 667.65 82.08 665.65 90.71 C 664.37 105.79 653.96 119.00 640.69 125.70 C 636.32 127.95 631.36 128.49 626.66 129.67 C 622.06 130.90 617.23 130.75 612.54 130.36 C 604.70 128.75 596.49 127.11 590.15 121.89 C 581.34 115.11 573.11 105.85 571.67 94.42 C 570.84 88.61 568.36 82.81 569.95 76.89 C 571.60 70.64 571.74 63.88 575.17 58.21 C 580.69 48.16 589.73 39.81 600.52 35.73 C 605.42 34.42 610.46 33.70 615.42 32.59 M 617.25 38.41 C 610.93 38.05 605.92 42.72 602.39 47.41 C 598.67 52.27 597.72 58.45 596.09 64.18 C 593.94 72.28 594.53 80.72 594.54 89.02 C 594.30 96.02 596.57 102.75 598.63 109.34 C 601.26 115.75 605.73 122.51 612.84 124.32 C 618.43 124.70 624.93 125.54 629.52 121.56 C 635.19 117.14 638.26 110.40 639.75 103.53 C 642.26 97.31 641.50 90.54 641.58 84.00 C 641.43 76.19 642.46 68.14 639.59 60.66 C 638.31 52.95 634.23 45.86 628.27 40.82 C 625.12 38.54 621.00 38.40 617.25 38.41 Z" />
<path fill="#fefefe" opacity="1.00" d=" M 961.47 32.57 C 965.58 31.53 969.05 34.56 971.74 37.26 C 974.53 39.98 973.50 44.24 973.46 47.72 C 970.94 55.23 959.04 57.26 954.46 50.56 C 951.85 47.88 952.23 43.91 952.66 40.51 C 954.18 36.71 957.54 33.69 961.47 32.57 Z" />
<path fill="#fefefe" opacity="1.00" d=" M 119.83 35.43 C 134.88 35.30 149.94 35.49 165.00 35.34 C 169.63 35.47 174.46 34.84 178.90 36.54 C 184.31 38.58 190.44 39.19 195.02 43.03 C 198.61 46.20 201.43 50.65 201.50 55.56 C 201.63 60.19 201.92 65.01 200.25 69.41 C 198.36 73.20 195.24 76.35 191.64 78.53 C 188.57 80.39 184.38 80.74 182.32 83.98 C 182.71 85.86 184.33 87.12 185.43 88.60 C 188.89 92.84 191.60 97.64 195.03 101.90 C 200.93 109.33 205.05 118.27 212.53 124.34 C 212.52 125.41 212.52 126.48 212.52 127.55 C 203.20 127.61 193.87 127.61 184.55 127.52 C 180.75 121.02 177.26 114.29 172.68 108.29 C 168.63 102.62 164.65 96.89 161.10 90.89 C 159.66 88.20 157.23 86.31 154.68 84.74 C 152.49 90.24 153.79 96.25 153.48 102.00 C 153.76 107.78 152.33 114.16 155.63 119.34 C 158.08 122.53 162.25 123.46 165.84 124.77 C 165.48 125.50 164.76 126.97 164.40 127.70 C 149.65 127.48 134.91 127.58 120.16 127.67 C 120.24 126.34 120.31 125.01 120.39 123.68 C 124.16 123.72 127.54 121.98 130.45 119.72 C 130.59 114.76 132.42 110.02 132.37 105.06 C 132.32 91.04 132.32 77.02 132.36 63.01 C 132.61 57.02 131.14 51.15 131.16 45.16 C 130.39 40.09 124.50 39.56 120.60 38.24 C 120.41 37.54 120.02 36.13 119.83 35.43 M 158.14 40.71 C 156.03 42.17 153.25 44.02 153.50 46.93 C 153.31 57.46 153.72 68.00 153.30 78.53 C 160.34 80.75 169.09 79.92 174.45 74.45 C 180.24 65.57 180.20 52.84 173.66 44.36 C 169.64 40.39 163.47 39.78 158.14 40.71 Z" />
<path fill="#fefefe" opacity="1.00" d=" M 215.65 35.41 C 240.78 35.44 265.91 35.24 291.04 35.46 C 293.07 35.14 294.66 37.05 294.45 38.99 C 294.41 45.62 294.65 52.26 294.31 58.88 C 293.27 59.93 292.03 60.75 290.85 61.61 C 288.73 55.74 287.37 48.91 281.91 45.10 C 274.16 39.34 264.09 40.34 255.01 40.57 C 250.65 42.32 249.12 47.67 249.72 51.99 C 250.75 58.28 250.79 64.76 249.74 71.06 C 249.19 73.38 250.27 75.66 251.63 77.48 C 258.41 78.30 265.53 75.01 268.86 68.94 C 271.38 65.91 269.55 61.50 271.92 58.46 C 272.78 58.49 274.48 58.55 275.33 58.58 C 275.91 63.03 275.48 67.53 275.57 72.00 C 275.46 81.77 275.75 91.56 275.47 101.33 C 274.49 101.47 272.52 101.74 271.53 101.88 C 271.06 94.77 268.08 87.42 261.55 83.85 C 257.62 83.13 253.57 83.64 249.60 83.66 C 249.66 94.05 249.51 104.45 249.65 114.84 C 250.24 118.33 252.04 122.81 256.11 123.17 C 265.91 124.15 276.69 122.78 284.59 116.47 C 290.87 111.87 294.58 104.87 297.53 97.86 C 298.50 98.32 300.43 99.24 301.40 99.69 C 300.39 105.95 298.29 111.93 296.82 118.07 C 295.97 121.15 297.82 125.20 295.11 127.51 C 268.97 127.79 242.81 127.54 216.67 127.60 C 214.16 128.14 214.95 123.69 217.06 123.67 C 219.93 123.27 223.29 123.70 225.61 121.59 C 227.75 119.69 227.45 116.62 227.50 114.04 C 227.41 91.03 227.57 68.01 227.43 45.00 C 227.72 40.66 222.75 39.75 219.49 39.22 C 217.16 39.08 215.58 37.92 215.65 35.41 Z" />
<path fill="#fefefe" opacity="1.00" d=" M 308.50 35.13 C 325.35 35.79 342.22 35.14 359.07 35.41 C 362.84 35.44 366.19 37.40 369.72 38.46 C 376.20 40.21 381.69 45.01 384.46 51.08 C 384.90 57.32 385.08 63.67 384.31 69.88 C 382.19 73.82 378.87 76.97 375.41 79.73 C 372.14 82.40 367.86 82.97 364.01 84.37 C 358.58 86.58 352.61 85.36 346.93 85.61 C 344.63 85.59 340.93 85.09 340.62 88.26 C 340.54 98.33 340.27 108.47 340.77 118.53 C 342.36 123.44 348.15 122.69 351.76 124.87 C 351.72 125.53 351.63 126.84 351.59 127.49 C 336.76 127.73 321.91 127.60 307.07 127.53 C 306.70 124.43 309.82 123.73 311.97 122.59 C 315.95 120.77 318.54 116.43 318.41 112.08 C 318.40 92.38 318.36 72.69 318.42 53.00 C 318.45 49.38 318.04 45.60 316.26 42.38 C 314.44 39.27 310.38 39.35 307.32 38.40 C 307.62 37.58 308.21 35.95 308.50 35.13 M 343.26 40.93 C 341.34 41.77 340.29 43.88 340.50 45.92 C 340.51 55.96 340.54 66.00 340.49 76.04 C 340.36 77.66 340.83 79.25 341.99 80.41 C 348.13 80.84 356.00 80.30 359.21 74.12 C 363.43 68.66 362.57 61.48 362.29 55.04 C 361.33 50.13 359.47 44.42 354.52 42.22 C 351.12 40.40 346.96 39.79 343.26 40.93 Z" />
<path fill="#fefefe" opacity="1.00" d=" M 1205.16 63.69 C 1208.38 62.70 1211.60 61.42 1215.01 61.22 C 1219.21 61.60 1222.77 64.57 1227.04 64.64 C 1229.59 64.84 1231.57 62.99 1233.56 61.67 C 1238.01 68.04 1236.02 76.23 1235.45 83.42 C 1234.12 83.44 1232.80 83.46 1231.51 83.47 C 1229.14 78.71 1227.16 73.21 1222.37 70.32 C 1219.45 68.17 1215.63 68.09 1212.19 68.57 C 1208.87 70.12 1206.20 74.04 1207.55 77.76 C 1208.53 79.66 1209.95 81.39 1211.79 82.53 C 1217.69 86.13 1224.22 88.58 1230.17 92.10 C 1235.08 95.72 1239.12 101.61 1238.54 107.96 C 1239.40 115.77 1235.13 124.05 1228.05 127.57 C 1223.38 129.28 1218.25 131.24 1213.26 129.78 C 1207.39 128.28 1200.92 127.04 1195.19 129.63 C 1192.83 130.88 1190.77 128.04 1190.75 125.91 C 1190.57 119.43 1190.79 112.94 1190.72 106.46 C 1192.96 106.34 1195.21 106.38 1197.44 106.74 C 1198.09 112.78 1201.33 118.52 1206.62 121.68 C 1210.12 124.45 1214.86 123.74 1219.01 123.52 C 1223.38 121.79 1224.94 116.30 1223.12 112.24 C 1218.28 106.94 1211.04 105.03 1205.02 101.45 C 1200.11 98.63 1194.96 95.04 1193.15 89.39 C 1188.99 79.60 1194.82 66.66 1205.16 63.69 Z" />
<path fill="#fefefe" opacity="1.00" d=" M 1064.11 63.92 C 1068.29 63.21 1072.60 60.79 1076.86 62.35 C 1081.18 63.69 1086.23 63.98 1089.49 67.53 C 1094.65 72.74 1099.64 79.34 1099.40 87.04 C 1099.71 89.93 1099.33 92.84 1097.68 95.29 C 1087.02 95.07 1076.36 95.22 1065.71 95.24 C 1066.44 101.39 1067.60 107.72 1070.77 113.13 C 1074.52 118.44 1081.71 118.66 1087.47 117.31 C 1091.25 115.27 1094.19 112.03 1096.96 108.80 C 1098.07 109.54 1099.21 110.26 1100.37 110.97 C 1099.41 113.64 1098.70 116.56 1096.57 118.59 C 1092.27 122.94 1087.78 127.86 1081.46 128.96 C 1067.33 133.85 1050.25 124.55 1046.88 109.94 C 1045.83 103.50 1043.69 96.92 1045.27 90.39 C 1046.25 85.35 1046.86 79.99 1049.90 75.68 C 1053.34 70.57 1057.69 65.10 1064.11 63.92 M 1070.71 68.68 C 1064.04 72.78 1065.31 81.37 1065.61 88.03 C 1068.13 90.42 1071.92 89.23 1075.06 89.50 C 1077.94 89.76 1081.10 88.67 1082.30 85.82 C 1083.44 80.34 1080.46 75.18 1080.15 69.76 C 1077.26 68.37 1073.68 66.24 1070.71 68.68 Z" />
<path fill="#fefefe" opacity="1.00" d=" M 720.57 64.47 C 724.17 63.32 727.88 62.14 731.71 62.40 C 735.10 62.45 738.14 64.21 741.47 64.59 C 744.37 64.90 747.14 63.76 750.00 63.49 C 751.09 64.43 751.64 65.79 751.56 67.22 C 751.66 72.35 751.44 77.48 751.67 82.61 C 750.20 82.61 748.75 82.61 747.30 82.62 C 744.52 76.85 741.52 69.48 734.44 68.16 C 730.23 66.73 724.53 68.02 722.75 72.46 C 722.50 75.23 721.93 78.68 724.33 80.71 C 731.27 87.03 741.19 88.64 748.19 94.83 C 753.79 99.40 755.56 107.60 753.37 114.33 C 752.53 119.62 748.54 123.70 744.26 126.56 C 739.68 129.42 734.08 128.65 728.96 128.71 C 725.20 128.85 721.72 127.38 718.18 126.41 C 714.84 125.53 711.64 129.13 708.41 127.27 C 708.46 121.15 708.07 114.99 708.58 108.88 C 708.88 108.16 709.49 106.72 709.79 106.01 C 713.11 109.42 714.34 114.17 717.21 117.88 C 720.84 122.11 726.33 125.03 732.02 124.38 C 735.90 124.87 738.60 121.63 740.44 118.69 C 741.56 117.18 741.92 114.82 740.53 113.35 C 736.48 108.04 730.43 104.79 724.35 102.35 C 717.88 99.85 711.70 95.39 708.89 88.86 C 708.16 84.99 708.38 80.95 708.71 77.04 C 710.87 71.62 714.75 66.24 720.57 64.47 Z" />
<path fill="#fefefe" opacity="1.00" d=" M 860.50 63.43 C 866.48 60.46 874.62 64.07 876.45 70.46 C 876.60 73.60 877.40 77.42 874.84 79.84 C 872.58 82.67 868.78 84.56 865.22 83.12 C 862.11 80.99 859.89 77.83 856.86 75.63 C 853.44 74.67 851.21 78.08 849.50 80.45 C 848.24 81.99 848.53 84.08 848.44 85.92 C 848.54 97.46 848.34 109.01 848.57 120.54 C 851.73 123.03 857.30 123.08 858.30 127.52 C 846.57 127.84 834.83 127.30 823.10 127.77 C 822.65 123.83 826.51 121.84 828.24 118.83 C 828.66 117.27 828.50 115.63 828.56 114.03 C 828.43 101.01 828.58 87.99 828.50 74.98 C 828.47 71.38 825.04 69.40 822.41 67.65 C 822.42 66.58 822.43 65.51 822.44 64.44 C 830.43 64.45 838.42 64.50 846.41 64.48 C 847.12 66.96 847.73 69.50 848.93 71.81 C 853.15 69.50 855.70 64.83 860.50 63.43 Z" />
<path fill="#fefefe" opacity="1.00" d=" M 1000.31 67.33 C 1006.38 63.94 1013.58 61.97 1020.56 62.57 C 1025.92 63.74 1031.97 64.96 1035.41 69.70 C 1038.32 72.72 1037.98 77.16 1037.64 81.02 C 1036.61 83.19 1034.84 84.95 1032.98 86.42 C 1030.66 86.84 1028.28 86.84 1025.98 86.45 C 1024.04 84.69 1022.13 82.55 1021.60 79.91 C 1021.25 76.19 1021.48 72.44 1021.36 68.71 C 1018.44 68.55 1015.50 68.14 1012.61 68.60 C 1006.51 72.02 1006.05 79.64 1004.75 85.74 C 1003.61 91.15 1005.61 96.42 1006.33 101.72 C 1006.99 108.67 1011.43 115.12 1017.49 118.51 C 1019.69 119.97 1022.43 119.59 1024.94 119.65 C 1030.42 120.07 1034.32 115.49 1037.98 112.12 C 1038.93 113.11 1039.89 114.10 1040.86 115.11 C 1036.81 119.63 1032.42 123.98 1027.14 127.04 C 1020.17 129.91 1012.21 130.40 1005.01 128.07 C 1000.37 127.05 996.98 123.47 993.69 120.30 C 990.68 117.38 988.39 113.77 987.13 109.77 C 984.53 103.74 985.61 97.05 985.56 90.69 C 987.07 81.40 991.94 72.14 1000.31 67.33 Z" />
<path fill="#fefefe" opacity="1.00" d=" M 1321.61 62.56 C 1326.58 61.61 1331.81 64.80 1334.10 69.13 C 1334.85 72.84 1335.28 77.44 1332.40 80.39 C 1330.16 82.97 1326.47 84.41 1323.20 83.09 C 1319.72 81.03 1317.33 77.62 1313.98 75.40 C 1309.12 75.75 1306.09 81.45 1306.41 85.95 C 1306.57 96.82 1306.20 107.70 1306.58 118.55 C 1307.36 123.97 1315.76 121.96 1315.97 127.49 C 1303.65 127.74 1291.31 127.57 1279.00 127.56 C 1278.43 122.20 1287.21 123.38 1286.42 118.02 C 1286.48 104.68 1286.38 91.33 1286.46 77.99 C 1286.41 75.57 1286.59 73.10 1286.09 70.72 C 1284.09 69.05 1281.40 68.70 1278.97 68.07 C 1279.23 66.84 1279.55 65.63 1279.93 64.43 C 1286.29 64.33 1292.65 64.56 1299.02 64.43 C 1300.93 64.55 1303.32 63.89 1304.55 65.89 C 1304.73 68.07 1304.68 70.26 1304.72 72.45 C 1305.53 72.38 1306.36 72.32 1307.20 72.28 C 1310.50 67.30 1315.72 63.69 1321.61 62.56 Z" />
<path fill="#fefefe" opacity="1.00" d=" M 1387.30 62.71 C 1391.67 61.62 1395.96 63.50 1400.13 64.61 C 1408.69 67.14 1415.45 74.17 1418.53 82.43 C 1419.75 86.86 1420.75 91.39 1421.40 95.95 C 1420.45 101.07 1419.75 106.29 1418.16 111.26 C 1414.69 117.39 1410.19 123.42 1403.81 126.72 C 1397.44 129.55 1390.17 130.30 1383.37 128.78 C 1371.10 126.99 1362.29 115.68 1359.78 104.10 C 1359.23 99.06 1359.32 93.95 1359.71 88.90 C 1361.40 79.51 1367.70 71.48 1375.52 66.26 C 1379.22 64.48 1383.34 63.78 1387.30 62.71 M 1387.41 68.34 C 1385.03 69.14 1383.06 70.98 1382.34 73.41 C 1379.61 79.94 1380.47 87.11 1380.34 94.00 C 1380.43 99.91 1380.14 105.83 1380.50 111.73 C 1381.08 116.24 1382.48 121.44 1386.98 123.55 C 1389.93 123.63 1393.94 124.78 1395.84 121.79 C 1400.51 116.39 1400.29 108.72 1400.48 102.00 C 1400.10 91.32 1402.12 79.50 1395.96 70.03 C 1393.74 68.10 1390.19 66.81 1387.41 68.34 Z" />
<path fill="#fefefe" opacity="1.00" d=" M 776.30 65.89 C 784.76 62.55 794.85 61.95 802.95 66.69 C 808.90 69.93 810.99 76.87 812.95 82.89 C 814.30 86.34 814.82 90.02 814.93 93.71 C 809.96 93.96 804.97 93.43 800.03 94.16 C 793.53 94.88 786.98 94.33 780.47 94.71 C 781.38 102.00 781.99 110.03 787.28 115.67 C 789.87 117.81 793.02 119.25 796.21 120.24 C 803.40 120.21 807.56 112.72 814.36 111.60 C 813.72 117.72 808.56 121.85 803.82 125.07 C 797.65 129.50 789.69 128.82 782.53 128.49 C 776.25 128.17 771.70 123.50 767.75 119.14 C 763.60 114.88 762.79 108.58 762.20 102.92 C 762.43 94.66 760.98 85.92 764.76 78.20 C 767.38 73.16 771.59 69.02 776.30 65.89 M 787.39 68.42 C 785.32 68.44 783.58 70.06 782.90 71.93 C 781.53 75.54 780.71 79.32 779.83 83.07 C 779.17 85.51 780.40 88.63 783.05 89.20 C 786.67 89.72 790.37 89.52 794.03 89.43 C 795.44 89.48 796.59 88.38 797.46 87.38 C 797.83 82.43 796.86 77.50 796.22 72.62 C 794.93 69.00 790.90 67.69 787.39 68.42 Z" />
<path fill="#fefefe" opacity="1.00" d=" M 1108.91 72.32 C 1113.88 63.54 1125.44 62.01 1134.48 63.90 C 1139.07 65.36 1143.90 65.43 1148.68 65.24 C 1148.64 70.97 1148.63 76.70 1148.74 82.43 C 1147.77 82.18 1145.85 81.69 1144.88 81.44 C 1142.38 78.13 1141.08 73.93 1137.82 71.20 C 1133.42 67.36 1125.93 66.03 1121.46 70.47 C 1118.39 73.24 1119.80 78.06 1122.39 80.64 C 1128.59 87.00 1138.02 88.42 1144.65 94.19 C 1147.74 96.71 1150.59 100.13 1150.60 104.33 C 1150.65 109.60 1151.62 115.53 1148.33 120.09 C 1145.52 124.09 1141.63 128.00 1136.51 128.49 C 1132.38 128.84 1128.22 128.82 1124.09 128.60 C 1120.62 128.46 1117.55 126.48 1114.13 126.22 C 1111.43 126.59 1108.94 127.80 1106.32 128.47 C 1106.26 121.15 1106.07 113.82 1106.42 106.51 C 1110.56 107.48 1111.16 112.21 1113.08 115.36 C 1116.39 122.72 1125.73 126.00 1133.20 123.79 C 1136.14 122.15 1138.17 119.08 1139.31 115.99 C 1138.64 112.55 1135.51 110.23 1132.87 108.23 C 1127.61 104.58 1121.41 102.63 1115.98 99.27 C 1111.72 96.69 1108.34 92.60 1106.50 88.01 C 1106.19 82.72 1105.46 76.81 1108.91 72.32 Z" />
<path fill="#fefefe" opacity="1.00" d=" M 878.11 66.66 C 879.45 65.44 880.95 64.13 882.93 64.44 C 892.99 64.48 903.05 64.43 913.11 64.47 C 912.90 65.40 912.49 67.26 912.28 68.19 C 910.39 68.81 908.46 69.29 906.53 69.71 C 906.09 75.98 910.39 81.01 911.79 86.87 C 913.81 90.89 914.29 95.54 916.49 99.44 C 918.50 99.67 920.30 98.26 920.78 96.33 C 923.18 89.21 926.20 82.33 928.79 75.29 C 929.26 73.50 930.21 70.94 928.46 69.58 C 926.89 67.96 924.33 68.88 922.35 68.53 C 922.34 67.48 922.33 65.38 922.32 64.33 C 929.35 65.02 936.74 63.20 943.50 65.77 C 940.58 68.30 936.65 70.08 935.39 74.05 C 927.92 92.19 921.03 110.57 913.44 128.66 C 911.82 128.62 910.21 128.59 908.61 128.56 C 901.89 112.19 895.49 95.70 888.54 79.43 C 886.45 74.21 882.67 69.88 878.11 66.66 Z" />
<path fill="#fefefe" opacity="1.00" d=" M 945.61 65.81 C 949.47 63.83 953.84 64.51 958.00 64.46 C 962.68 64.56 967.36 64.25 972.04 64.57 C 973.93 65.76 973.43 68.07 973.54 69.97 C 973.45 85.67 973.54 101.37 973.48 117.07 C 972.78 121.43 977.86 123.38 978.28 127.49 C 967.71 127.63 957.13 127.70 946.57 127.48 C 948.04 123.12 953.97 121.07 953.54 116.01 C 953.50 102.37 953.53 88.73 953.53 75.10 C 953.72 70.43 948.44 68.57 945.61 65.81 Z" />
<path fill="#fefefe" opacity="1.00" d=" M 1254.41 106.27 C 1262.74 102.35 1272.45 111.91 1270.45 120.41 C 1268.61 129.03 1256.90 132.38 1250.55 126.47 C 1248.45 123.43 1246.04 119.93 1246.55 116.06 C 1247.88 112.00 1250.70 108.42 1254.41 106.27 Z" />
<path fill="#fefefe" opacity="1.00" d=" M 1335.34 106.20 C 1341.76 103.19 1348.61 108.49 1350.44 114.64 C 1352.76 118.54 1350.15 122.83 1348.23 126.29 C 1342.68 131.20 1332.02 130.66 1328.81 123.23 C 1324.89 116.88 1329.35 109.25 1335.34 106.20 Z" />
<path fill="#fefefe" opacity="1.00" d=" M 1436.48 106.37 C 1443.80 102.66 1453.45 109.98 1452.54 118.00 C 1453.18 125.77 1443.39 131.95 1436.51 128.57 C 1431.87 126.87 1428.58 122.08 1429.39 117.08 C 1428.54 112.14 1432.70 108.66 1436.48 106.37 Z" />
<path fill="#fefefe" opacity="1.00" d=" M 321.97 185.97 C 324.57 183.01 327.40 180.13 331.02 178.43 C 333.09 179.40 334.45 181.35 336.00 182.95 C 332.11 188.19 326.46 191.54 321.00 194.87 C 319.51 195.71 317.71 195.45 316.09 195.68 C 316.33 191.63 319.47 188.82 321.97 185.97 Z" />
<path fill="#fefefe" opacity="1.00" d=" M 843.22 179.26 C 848.56 178.51 851.61 183.18 855.36 185.98 C 858.01 188.12 860.14 184.47 861.97 182.96 C 863.91 180.54 866.73 179.22 869.83 179.18 C 870.20 183.82 866.27 186.73 864.32 190.48 C 863.30 192.01 862.79 193.97 861.35 195.18 C 858.97 195.64 856.52 195.58 854.13 195.46 C 851.85 195.55 850.73 193.21 849.39 191.76 C 846.73 187.93 842.92 184.31 843.22 179.26 Z" />
<path fill="#fefefe" opacity="1.00" d=" M 600.80 181.78 C 602.91 179.81 606.01 180.63 608.63 180.36 C 608.85 181.85 609.67 183.36 609.27 184.89 C 605.80 189.02 600.94 191.61 596.51 194.55 C 594.63 195.94 592.21 195.55 590.03 195.61 C 590.54 193.80 591.21 191.98 592.57 190.62 C 595.30 187.66 597.77 184.45 600.80 181.78 Z" />
<path fill="#fefefe" opacity="1.00" d=" M 348.43 181.42 C 353.96 182.00 359.90 180.40 365.11 182.82 C 366.13 193.20 365.01 203.74 365.58 214.17 C 365.90 214.62 366.53 215.51 366.84 215.96 C 371.06 213.96 374.29 210.06 376.59 206.06 C 376.01 203.82 374.21 202.21 372.85 200.43 C 379.07 200.49 385.30 200.25 391.51 200.66 C 388.20 205.37 382.90 207.87 378.72 211.66 C 376.84 212.98 376.82 215.89 378.00 217.69 C 382.03 223.69 386.36 229.51 390.53 235.41 C 391.90 237.15 391.56 239.47 391.77 241.53 C 386.10 241.50 380.43 241.43 374.76 241.61 C 374.59 239.13 374.75 236.60 374.17 234.18 C 372.77 230.47 370.12 227.43 367.87 224.22 C 362.85 228.93 366.50 236.04 368.03 241.51 C 361.56 241.54 355.09 241.39 348.62 241.64 C 347.46 237.06 353.05 234.56 352.52 230.08 C 352.52 217.70 352.49 205.32 352.53 192.94 C 352.76 188.68 349.85 185.23 348.43 181.42 Z" />
<path fill="#fefefe" opacity="1.00" d=" M 395.98 181.49 C 401.84 181.76 407.96 180.65 413.53 182.98 C 413.34 199.01 413.52 215.05 413.44 231.08 C 412.99 235.21 417.36 237.50 417.96 241.42 C 410.67 241.58 403.37 241.49 396.07 241.49 C 396.02 237.09 400.62 234.43 400.48 230.09 C 400.49 217.71 400.44 205.32 400.51 192.94 C 400.71 188.64 397.58 185.25 395.98 181.49 Z" />
<path fill="#fefefe" opacity="1.00" d=" M 427.47 181.46 C 431.61 178.59 437.77 182.20 437.62 187.10 C 438.19 190.84 435.27 195.50 431.08 194.59 C 424.02 195.75 421.80 184.47 427.47 181.46 Z" />
<path fill="#fefefe" opacity="1.00" d=" M 730.20 180.74 C 732.67 180.05 735.27 180.38 737.80 180.34 C 737.77 181.91 737.60 183.47 737.30 185.01 C 733.72 189.06 728.90 191.66 724.49 194.66 C 723.13 195.83 721.25 195.86 719.62 195.36 C 718.40 192.76 720.94 191.09 722.38 189.33 C 725.07 186.54 727.18 183.19 730.20 180.74 Z" />
<path fill="#fefefe" opacity="1.00" d=" M 773.21 181.46 C 778.98 181.76 784.89 180.89 790.56 182.35 C 790.66 198.25 790.46 214.16 790.65 230.06 C 790.65 233.95 793.88 236.32 796.82 238.22 C 795.36 239.25 793.96 240.72 792.02 240.47 C 788.18 240.32 784.41 240.99 780.96 242.70 C 779.05 241.73 777.01 239.55 774.76 240.94 C 770.57 243.00 765.25 243.56 761.10 241.12 C 757.70 239.50 756.12 235.89 754.07 232.96 C 751.81 230.11 752.53 226.35 752.40 223.00 C 752.54 218.49 751.75 213.58 754.38 209.59 C 756.67 204.55 761.71 201.31 767.01 200.25 C 771.11 199.33 774.54 202.22 778.40 202.95 C 778.44 198.12 778.73 193.27 778.34 188.45 C 778.01 186.03 775.41 185.15 773.55 184.13 C 773.44 183.24 773.32 182.34 773.21 181.46 M 768.46 206.33 C 764.07 212.77 765.68 220.70 765.46 228.00 C 765.34 231.18 767.12 233.94 768.51 236.66 C 770.81 236.40 773.58 237.15 775.47 235.45 C 777.12 234.10 778.65 232.20 778.49 229.93 C 778.55 224.26 778.46 218.60 778.51 212.93 C 778.35 211.40 778.79 209.54 777.48 208.41 C 775.30 205.67 771.49 206.57 768.46 206.33 Z" />
<path fill="#fefefe" opacity="1.00" d=" M 1033.83 181.61 C 1035.68 179.94 1039.20 179.48 1040.77 181.78 C 1041.60 185.78 1038.01 188.36 1035.20 190.42 C 1031.37 192.81 1027.49 195.65 1022.80 195.84 C 1023.28 194.09 1023.38 192.10 1024.78 190.77 C 1027.58 187.53 1030.53 184.36 1033.83 181.61 Z" />
<path fill="#fefefe" opacity="1.00" d=" M 1181.29 181.01 C 1184.08 179.31 1187.42 180.78 1189.66 182.79 C 1187.38 186.13 1184.74 189.29 1181.23 191.38 C 1177.67 193.46 1173.80 197.19 1169.52 194.43 C 1173.19 189.77 1176.64 184.78 1181.29 181.01 Z" />
<path fill="#fefefe" opacity="1.00" d=" M 465.54 182.63 C 470.11 180.60 475.21 181.79 480.04 181.51 C 482.18 181.12 484.63 182.62 484.47 184.99 C 484.61 201.71 484.47 218.45 484.53 235.17 C 485.90 235.84 487.30 236.45 488.67 237.14 C 488.65 237.78 488.59 239.07 488.56 239.72 C 484.90 240.42 481.22 241.06 477.52 241.52 C 475.00 241.86 472.66 240.63 470.19 240.49 C 467.31 241.05 464.80 242.75 461.95 243.40 C 455.16 242.89 448.11 238.38 446.51 231.45 C 445.33 227.16 443.59 222.65 445.10 218.21 C 446.35 214.01 446.63 209.15 449.88 205.88 C 453.60 201.97 458.82 198.30 464.51 199.60 C 467.24 200.57 469.66 202.37 472.61 202.72 C 472.51 197.93 472.48 193.14 472.51 188.35 C 470.21 186.42 467.83 184.58 465.54 182.63 M 463.46 206.45 C 459.26 208.26 458.10 213.73 458.45 217.95 C 458.86 223.38 457.10 229.60 460.62 234.31 C 461.50 235.47 462.53 236.90 464.20 236.63 C 467.86 237.32 470.61 234.31 472.29 231.47 C 472.85 225.67 472.38 219.80 472.54 213.98 C 473.02 209.15 468.15 205.00 463.46 206.45 Z" />
<path fill="#fefefe" opacity="1.00" d=" M 878.79 182.31 C 883.11 182.35 887.43 182.40 891.74 182.12 C 893.59 188.85 892.23 195.96 892.61 202.86 C 897.14 202.12 900.94 198.49 905.77 199.49 C 912.25 200.70 918.10 205.99 919.46 212.56 C 921.82 219.71 920.57 227.63 917.22 234.24 C 913.95 240.13 907.07 242.77 900.72 243.53 C 895.64 244.39 892.08 237.48 887.02 240.17 C 885.20 240.53 882.29 243.12 881.50 240.12 C 881.19 223.74 881.54 207.34 881.36 190.95 C 881.25 187.90 879.82 185.12 878.79 182.31 M 892.72 214.95 C 893.92 221.05 893.04 227.27 893.55 233.42 C 894.71 236.89 897.56 240.28 901.59 239.86 C 903.24 237.42 905.14 235.09 906.29 232.36 C 908.00 227.41 907.48 222.06 907.30 216.93 C 906.64 212.45 904.96 206.68 899.97 205.47 C 895.44 205.54 892.61 210.87 892.72 214.95 Z" />
<path fill="#fefefe" opacity="1.00" d=" M 581.76 207.74 C 585.44 202.32 592.02 198.23 598.76 199.53 C 603.68 200.61 608.59 203.53 610.69 208.31 C 613.13 211.95 612.60 216.42 612.54 220.56 C 607.01 220.59 601.47 220.33 595.96 220.74 C 594.36 221.09 592.51 221.31 591.42 222.68 C 590.98 227.62 594.45 232.12 598.03 235.15 C 603.74 237.87 607.63 231.87 612.84 231.02 C 612.74 237.01 606.62 240.65 601.55 242.35 C 596.80 242.71 591.50 243.45 587.31 240.64 C 581.86 237.63 578.98 231.48 578.57 225.45 C 578.14 219.44 578.15 212.88 581.76 207.74 M 591.33 211.04 C 591.59 212.76 590.62 215.49 592.58 216.42 C 595.32 216.68 598.08 216.53 600.84 216.61 C 601.31 214.51 601.68 212.37 601.58 210.21 C 601.68 206.91 598.65 204.61 595.97 203.31 C 593.32 204.99 590.85 207.66 591.33 211.04 Z" />
<path fill="#fefefe" opacity="1.00" d=" M 645.86 202.01 C 652.66 198.23 661.31 198.50 668.15 202.01 C 671.49 203.51 673.65 206.94 674.40 210.42 C 674.82 217.91 674.17 225.43 674.63 232.91 C 675.63 235.34 677.90 236.97 679.45 239.05 C 676.27 240.92 672.95 243.21 669.05 242.63 C 665.94 242.93 663.50 240.77 661.01 239.29 C 655.62 241.54 649.66 243.93 643.80 242.08 C 641.73 240.94 639.84 239.33 638.71 237.25 C 638.47 233.92 637.67 229.91 640.33 227.31 C 645.53 220.80 654.38 219.80 661.31 215.94 C 661.78 212.13 662.14 207.68 659.28 204.66 C 658.02 202.99 655.79 203.50 654.00 203.47 C 652.40 204.57 651.52 206.36 650.40 207.88 C 651.14 209.48 652.44 210.95 652.50 212.79 C 651.19 215.18 648.65 216.94 645.99 217.47 C 642.98 217.19 640.90 214.39 639.44 211.99 C 640.08 208.05 641.97 203.70 645.86 202.01 M 653.62 225.40 C 650.88 228.44 652.03 232.61 654.63 235.30 C 656.73 235.70 658.98 235.13 660.40 233.45 C 663.64 230.38 661.95 225.52 662.30 221.59 C 658.85 221.19 655.20 221.95 653.62 225.40 Z" />
<path fill="#fefefe" opacity="1.00" d=" M 702.09 200.42 C 707.16 199.36 712.40 199.47 717.54 199.78 C 719.84 200.24 720.19 202.98 720.23 204.92 C 720.32 215.16 720.03 225.40 720.40 235.63 C 723.40 236.82 726.67 236.31 728.78 233.75 C 731.22 231.91 730.48 228.68 730.58 226.05 C 730.46 220.36 730.62 214.66 730.54 208.98 C 730.70 205.71 728.36 203.17 726.91 200.48 C 731.26 200.46 735.63 200.21 739.97 200.59 C 741.04 201.42 742.67 202.35 742.56 203.93 C 742.81 213.25 742.47 222.59 742.65 231.91 C 742.40 235.62 747.83 235.70 748.24 239.25 C 745.83 240.92 742.83 240.33 740.10 240.58 C 737.54 240.62 735.20 241.80 732.86 242.66 C 731.55 241.53 730.30 240.35 729.02 239.22 C 726.06 241.11 722.87 243.07 719.21 242.66 C 714.65 242.82 708.32 241.16 707.64 235.85 C 705.67 228.72 706.98 221.24 706.66 213.95 C 707.35 208.87 703.30 205.08 702.09 200.42 Z" />
<path fill="#fefefe" opacity="1.00" d=" M 942.40 199.46 C 948.86 198.54 955.31 201.73 959.63 206.39 C 962.61 209.28 963.59 213.47 964.82 217.29 C 965.73 219.99 965.75 222.98 964.80 225.69 C 963.26 230.85 961.50 236.60 956.55 239.51 C 952.40 241.73 947.80 243.98 942.96 243.45 C 936.91 242.13 930.93 238.75 928.04 233.05 C 924.49 227.69 925.38 220.98 925.76 214.92 C 928.15 207.48 934.81 201.30 942.40 199.46 M 941.35 205.34 C 937.92 211.65 938.33 218.97 938.41 225.91 C 938.22 230.51 939.84 234.98 941.96 239.00 C 943.39 239.79 945.14 239.56 946.73 239.84 C 948.40 237.68 950.36 235.63 951.25 232.98 C 951.76 227.33 951.37 221.65 951.51 215.98 C 951.74 212.22 951.27 208.25 948.63 205.35 C 947.29 202.68 942.65 202.65 941.35 205.34 Z" />
<path fill="#fefefe" opacity="1.00" d=" M 1020.63 201.63 C 1025.30 198.76 1031.77 198.33 1036.30 201.73 C 1041.09 204.62 1044.40 209.76 1044.53 215.42 C 1044.42 217.09 1045.17 219.36 1043.38 220.36 C 1036.64 221.26 1029.29 218.96 1023.16 222.76 C 1024.41 227.59 1025.70 234.15 1031.27 235.60 C 1036.18 236.74 1039.78 233.02 1043.50 230.55 C 1043.38 232.37 1043.99 234.42 1043.10 236.10 C 1039.73 240.25 1034.47 243.19 1029.00 242.64 C 1022.25 243.39 1015.48 239.52 1012.67 233.35 C 1009.11 227.97 1010.65 221.26 1010.53 215.21 C 1011.97 209.70 1015.22 204.07 1020.63 201.63 M 1025.72 203.25 C 1024.75 206.50 1022.71 209.57 1022.62 212.99 C 1023.76 217.09 1028.29 216.62 1031.62 216.68 C 1032.59 214.40 1033.92 212.06 1033.45 209.49 C 1032.73 205.85 1029.46 203.14 1025.72 203.25 Z" />
<path fill="#fefefe" opacity="1.00" d=" M 1096.32 199.50 C 1103.85 198.40 1110.24 204.55 1113.10 210.96 C 1114.00 214.56 1113.42 218.35 1113.59 222.03 C 1113.40 225.45 1114.10 229.16 1112.36 232.29 C 1109.52 237.90 1104.16 242.26 1097.95 243.44 C 1094.38 242.91 1091.25 240.96 1087.88 239.80 C 1087.31 244.18 1087.52 248.61 1087.55 253.02 C 1089.06 254.57 1091.98 255.70 1091.53 258.31 C 1085.14 260.09 1078.25 259.81 1071.81 258.43 C 1073.04 254.99 1075.55 251.87 1075.45 248.07 C 1075.43 236.36 1075.40 224.66 1075.46 212.95 C 1075.91 208.24 1072.58 204.50 1070.74 200.46 C 1076.48 200.92 1082.71 199.14 1088.05 201.90 C 1091.02 203.71 1093.33 199.60 1096.32 199.50 M 1087.64 211.00 C 1087.48 218.28 1087.25 225.63 1087.77 232.91 C 1089.05 236.69 1093.36 236.71 1096.67 236.74 C 1098.42 233.70 1100.70 230.60 1100.57 226.92 C 1100.49 219.94 1101.67 212.46 1097.55 206.30 C 1093.86 206.23 1088.30 206.27 1087.64 211.00 Z" />
<path fill="#fefefe" opacity="1.00" d=" M 1137.20 204.53 C 1141.18 202.17 1145.26 198.30 1150.29 199.64 C 1155.23 202.42 1156.11 210.30 1150.82 213.19 C 1146.70 214.59 1143.71 210.21 1140.85 208.01 C 1139.33 209.60 1137.66 211.09 1136.56 213.01 C 1136.08 219.35 1136.43 225.72 1136.34 232.06 C 1135.83 235.66 1139.14 237.85 1141.12 240.33 C 1134.78 242.66 1127.89 240.98 1121.31 241.59 C 1120.47 238.00 1123.81 235.47 1123.62 232.02 C 1123.59 225.01 1123.58 218.00 1123.62 210.98 C 1123.91 207.07 1121.40 203.84 1119.83 200.47 C 1124.39 200.50 1128.96 200.23 1133.51 200.54 C 1135.12 201.42 1135.99 203.19 1137.20 204.53 Z" />
<path fill="#fefefe" opacity="1.00" d=" M 1162.46 203.51 C 1170.43 197.38 1182.02 198.41 1189.96 204.05 C 1192.22 206.78 1193.63 210.36 1193.52 213.94 C 1193.45 220.82 1193.50 227.70 1193.45 234.58 C 1195.15 235.71 1196.84 236.84 1198.52 238.03 C 1195.43 241.02 1191.40 243.25 1187.04 243.45 C 1184.35 242.81 1182.44 240.49 1179.93 239.42 C 1175.53 240.21 1171.66 243.28 1167.01 242.65 C 1163.18 243.18 1159.85 240.78 1157.67 237.86 C 1157.36 234.38 1156.52 230.13 1159.34 227.42 C 1161.33 225.22 1163.72 223.36 1166.44 222.14 C 1170.99 220.22 1175.36 217.55 1180.41 217.16 C 1180.50 212.67 1181.09 207.67 1178.10 203.89 C 1175.86 203.40 1173.55 203.49 1171.29 203.35 C 1169.89 205.77 1169.17 208.47 1169.80 211.25 C 1170.61 214.51 1167.31 217.95 1164.06 217.45 C 1161.69 216.54 1159.82 214.59 1158.63 212.40 C 1157.80 208.98 1160.11 205.75 1162.46 203.51 M 1175.82 221.99 C 1172.82 223.67 1171.02 226.87 1169.84 229.99 C 1170.67 231.99 1171.93 233.83 1173.46 235.37 C 1176.39 235.44 1179.18 233.52 1180.98 231.32 C 1181.67 228.13 1181.18 224.81 1181.28 221.57 C 1179.45 221.67 1177.56 221.41 1175.82 221.99 Z" />
<path fill="#fefefe" opacity="1.00" d=" M 1201.63 213.56 C 1204.37 206.19 1211.35 200.63 1219.10 199.42 C 1224.84 198.59 1230.67 201.25 1234.40 205.56 C 1234.74 208.25 1234.57 210.98 1234.56 213.70 C 1232.00 214.63 1228.92 216.66 1226.31 214.82 C 1223.30 213.26 1223.88 209.47 1223.14 206.69 C 1222.25 204.51 1219.68 203.97 1217.87 202.89 C 1216.32 205.70 1214.20 208.35 1213.56 211.54 C 1213.32 215.77 1213.17 220.06 1213.72 224.27 C 1215.45 229.85 1219.11 237.09 1226.01 236.47 C 1228.82 236.80 1230.60 234.32 1232.37 232.57 C 1232.89 232.49 1233.92 232.33 1234.43 232.25 C 1234.78 232.99 1235.48 234.46 1235.83 235.20 C 1232.21 238.21 1228.56 241.73 1223.72 242.46 C 1218.98 242.71 1213.74 243.30 1209.69 240.28 C 1205.40 237.24 1200.96 232.67 1201.41 226.99 C 1201.46 222.51 1201.19 218.02 1201.63 213.56 Z" />
<path fill="#fefefe" opacity="1.00" d=" M 1249.36 201.41 C 1252.89 198.98 1257.40 199.00 1261.47 199.70 C 1266.53 201.84 1271.17 205.92 1272.58 211.41 C 1273.60 214.33 1273.52 217.46 1273.66 220.51 C 1267.79 220.59 1261.91 220.40 1256.06 220.67 C 1254.53 220.73 1253.20 221.80 1252.42 223.03 C 1252.54 227.78 1254.62 232.67 1258.62 235.41 C 1260.83 235.66 1263.20 235.92 1265.36 235.23 C 1267.81 233.81 1270.21 232.17 1273.17 232.11 C 1271.77 237.17 1267.11 240.64 1262.34 242.28 C 1257.19 242.86 1251.37 243.40 1247.04 239.95 C 1234.89 230.70 1235.98 209.05 1249.36 201.41 M 1253.75 203.47 C 1253.01 207.03 1251.95 210.67 1252.62 214.34 C 1254.63 218.28 1259.78 216.44 1262.72 214.64 C 1262.80 210.84 1262.01 206.69 1258.97 204.13 C 1257.34 203.38 1255.46 203.67 1253.75 203.47 Z" />
<path fill="#fefefe" opacity="1.00" d=" M 300.19 200.43 C 305.07 200.43 309.95 200.52 314.83 200.38 C 317.33 205.59 316.28 211.44 316.47 217.00 C 316.62 222.43 316.10 227.89 316.73 233.29 C 317.67 235.29 320.49 237.50 322.56 235.75 C 325.58 233.89 329.06 231.04 328.46 227.07 C 328.28 221.08 328.76 215.06 328.21 209.11 C 326.53 205.81 323.93 203.06 322.56 199.58 C 328.39 200.67 334.32 200.21 340.20 200.67 C 341.07 211.39 340.10 222.19 340.64 232.93 C 341.78 235.39 343.61 237.54 344.02 240.31 C 340.20 240.34 336.40 240.73 332.65 241.45 C 329.48 242.06 326.36 239.79 323.27 241.04 C 318.32 242.74 311.90 244.13 307.59 240.28 C 305.67 238.67 303.67 236.57 303.63 233.92 C 303.38 225.95 303.87 217.96 303.48 210.00 C 302.13 206.88 299.84 204.06 300.19 200.43 Z" />
<path fill="#fefefe" opacity="1.00" d=" M 510.18 199.69 C 514.35 198.27 518.34 200.57 521.92 202.46 C 527.44 204.92 532.14 210.67 531.74 216.94 C 531.65 221.60 532.03 226.30 531.39 230.94 C 528.12 236.10 523.75 241.09 517.63 242.76 C 510.42 245.36 502.77 241.24 498.39 235.54 C 493.25 230.56 492.75 222.85 493.90 216.18 C 494.93 211.74 496.85 207.17 500.54 204.31 C 503.63 202.54 506.89 201.06 510.18 199.69 M 506.51 212.93 C 506.64 219.60 506.27 226.30 506.70 232.97 C 507.83 235.53 509.72 237.65 511.38 239.88 C 515.92 240.20 518.69 235.71 519.41 231.77 C 519.61 225.52 519.45 219.25 519.50 213.00 C 519.59 209.91 517.99 207.12 516.31 204.65 C 515.05 202.88 512.61 203.63 510.79 203.25 C 508.97 206.26 506.13 209.14 506.51 212.93 Z" />
<path fill="#fefefe" opacity="1.00" d=" M 535.90 200.42 C 542.97 200.44 550.04 200.50 557.11 200.39 C 556.12 204.07 553.14 207.94 555.10 211.80 C 556.78 215.24 558.12 218.83 558.93 222.58 C 563.32 219.20 565.69 213.67 565.59 208.19 C 565.29 205.46 563.87 203.03 562.90 200.51 C 567.31 200.44 571.72 200.25 576.13 200.50 C 573.94 204.52 571.31 208.33 569.62 212.61 C 567.06 219.61 563.89 226.38 561.32 233.37 C 559.98 237.03 558.03 240.41 556.00 243.72 C 553.91 240.81 552.03 237.72 550.83 234.33 C 548.50 227.24 545.21 220.53 542.49 213.59 C 540.73 208.97 537.05 205.30 535.90 200.42 Z" />
<path fill="#fefefe" opacity="1.00" d=" M 800.83 199.62 C 804.55 200.07 808.28 200.48 812.04 200.46 C 814.54 200.16 816.09 202.45 818.05 203.57 C 821.73 203.32 824.32 199.76 827.99 199.41 C 831.89 198.97 834.53 202.71 836.37 205.64 C 837.34 209.17 833.65 211.47 831.33 213.41 C 827.55 214.30 825.58 209.50 821.99 209.37 C 819.72 208.76 818.47 211.65 818.48 213.52 C 818.27 220.00 818.79 226.52 817.67 232.95 C 819.04 235.83 820.88 238.47 822.05 241.46 C 815.35 241.55 808.64 241.48 801.95 241.51 C 802.69 237.22 805.76 233.53 805.46 229.05 C 805.34 222.71 805.61 216.36 805.34 210.02 C 804.47 206.31 802.15 203.16 800.83 199.62 Z" />
<path fill="#fefefe" opacity="1.00" d=" M 841.56 200.42 C 851.97 200.41 862.38 200.44 872.79 200.49 C 872.71 203.99 871.53 207.30 869.82 210.31 C 865.84 217.50 861.56 224.52 857.15 231.44 C 855.97 233.27 855.38 236.58 857.86 237.63 C 860.45 237.56 863.13 236.88 865.27 235.36 C 867.88 232.74 869.63 228.88 873.55 227.97 C 873.88 232.70 872.36 237.25 870.53 241.55 C 860.49 241.31 850.45 241.74 840.43 241.38 C 837.81 241.21 838.26 237.93 839.40 236.40 C 844.42 227.69 849.47 219.00 854.49 210.30 C 855.32 208.98 855.73 207.44 855.65 205.89 C 853.91 203.40 849.99 204.17 847.80 205.69 C 845.22 207.06 844.32 209.96 843.24 212.46 C 841.89 212.50 840.55 212.55 839.23 212.60 C 839.91 208.52 840.71 204.46 841.56 200.42 Z" />
<path fill="#fefefe" opacity="1.00" d=" M 967.96 200.46 C 974.87 200.44 981.78 200.49 988.69 200.39 C 987.92 203.02 986.87 205.56 985.59 207.97 C 987.54 211.49 988.28 215.49 989.95 219.12 C 990.70 220.86 992.87 220.45 994.40 220.92 C 995.15 217.00 996.84 213.40 998.47 209.80 C 998.47 206.55 996.46 203.66 996.01 200.45 C 999.76 200.46 1003.68 199.92 1007.27 201.38 C 1003.60 207.42 1000.70 213.88 998.54 220.61 C 995.75 226.68 993.05 232.80 990.96 239.16 C 990.49 241.76 987.66 241.46 985.65 241.82 C 984.39 235.70 981.55 230.11 979.28 224.33 C 977.06 219.24 975.45 213.86 972.67 209.04 C 970.66 206.42 968.20 203.95 967.96 200.46 Z" />
<path fill="#fefefe" opacity="1.00" d=" M 422.32 200.49 C 426.57 200.37 430.83 200.29 435.08 200.54 C 435.41 200.89 436.06 201.60 436.38 201.96 C 436.86 211.62 436.38 221.31 436.57 230.99 C 436.43 233.60 438.76 235.31 440.02 237.34 C 441.50 238.88 440.16 241.67 438.03 241.47 C 432.92 241.65 427.79 241.57 422.69 241.30 C 425.49 233.82 424.35 225.80 424.55 218.01 C 424.50 214.75 424.78 211.48 424.40 208.25 C 423.78 205.64 422.20 203.26 422.32 200.49 Z" />
</g>
</svg>
